<svg xmlns="http://www.w3.org/2000/svg" xmlns:xlink="http://www.w3.org/1999/xlink" width="500" zoomAndPan="magnify" viewBox="0 0 375 374.999991" height="500" preserveAspectRatio="xMidYMid meet" version="1.2"><defs><clipPath id="fefa1ab9e8"><path d="M 208 260 L 306.195312 260 L 306.195312 310 L 208 310 Z M 208 260 "/></clipPath><clipPath id="2a2c3b68e3"><path d="M 68.445312 44.25 L 306.195312 44.25 L 306.195312 290 L 68.445312 290 Z M 68.445312 44.25 "/></clipPath></defs><g id="c903e46f0e"><g clip-rule="nonzero" clip-path="url(#fefa1ab9e8)"><path style=" stroke:none;fill-rule:nonzero;fill:#716646;fill-opacity:1;" d="M 216.40625 279.601562 C 212.164062 289.007812 209.359375 299.214844 208.285156 309.917969 L 298.050781 290.839844 C 302.292969 281.433594 305.09375 271.226562 306.171875 260.523438 Z M 216.40625 279.601562 "/></g><g clip-rule="nonzero" clip-path="url(#2a2c3b68e3)"><path style=" stroke:none;fill-rule:nonzero;fill:#716646;fill-opacity:1;" d="M 298.050781 233.671875 C 302.292969 224.269531 305.097656 214.058594 306.171875 203.355469 L 236.246094 218.226562 L 236.246094 189.636719 L 298.046875 176.503906 C 302.289062 167.101562 305.09375 156.890625 306.167969 146.1875 L 236.246094 161.046875 L 236.246094 58.234375 C 225.53125 64.25 216.015625 72.257812 208.277344 81.703125 L 208.277344 166.992188 L 180.3125 172.9375 L 180.3125 44.25 C 169.601562 50.265625 160.085938 58.273438 152.347656 67.71875 L 152.347656 178.878906 L 89.777344 192.175781 C 85.535156 201.578125 82.730469 211.789062 81.652344 222.492188 L 152.347656 207.46875 L 152.347656 243.46875 L 76.585938 259.570312 C 72.34375 268.972656 69.539062 279.183594 68.464844 289.886719 L 147.769531 273.035156 C 154.226562 271.691406 159.773438 267.875 163.382812 262.621094 L 177.925781 241.058594 L 177.925781 241.054688 C 179.433594 238.824219 180.3125 236.132812 180.3125 233.238281 L 180.3125 201.523438 L 208.277344 195.578125 L 208.277344 252.757812 L 298.046875 233.667969 Z M 298.050781 233.671875 "/></g></g></svg>